<svg width="121" height="14" viewBox="0 0 121 14" fill="none" xmlns="http://www.w3.org/2000/svg">
<path d="M9.42307 1.52885V8.16346C9.42307 10.375 8.46154 11.2885 6.15384 11.2885C3.84615 11.2885 2.88461 10.375 2.88461 8.16346V1.24039H0.673075C0.528844 1.24039 0.384613 1.38462 0.384613 1.52885V8.25962C0.384613 11.9615 2.74038 13.2596 6.15384 13.2596C9.56731 13.2596 11.9231 11.9615 11.9231 8.25962V1.24039H9.71154C9.56731 1.24039 9.42307 1.33654 9.42307 1.52885Z" fill="black"/>
<path d="M41.5865 3.16346C41.7789 3.16346 41.875 3.11539 41.9231 2.97116L42.5481 1.38462C42.5962 1.28846 42.5481 1.24039 42.4519 1.24039H33.5096C32.6923 1.24039 32.3558 1.48077 32.3558 2.05769V12.3462C32.3558 12.8269 32.5962 13.0673 33.2212 13.0673H41.5385C41.7308 13.0673 41.8269 13.0192 41.875 12.875L42.5 11.2885C42.5481 11.1923 42.5 11.1442 42.4039 11.1442H34.8077V9.02885C34.8077 8.30769 35.1923 7.97116 36.2981 7.97116H39.6154C39.8077 7.97116 39.9039 7.92308 39.9519 7.77885L40.5769 6.24039C40.625 6.14423 40.5769 6.09616 40.4808 6.09616H34.8558V3.11539H41.5865V3.16346Z" fill="black"/>
<path fill-rule="evenodd" clip-rule="evenodd" d="M25.8654 6.81731C26.8269 6.28846 27.2115 5.375 27.2115 4.22116C27.2115 1.625 25.0961 1.24039 22.8846 1.24039H17.8365C17.0192 1.24039 16.6827 1.48077 16.6827 2.05769V12.3462C16.6827 12.8269 16.9231 13.0673 17.5481 13.0673H23.75C26.1058 13.0673 27.7404 12.1538 27.7404 9.79808C27.7884 8.35577 27.2115 7.15385 25.8654 6.81731ZM19.1827 3.11539H23.0769C24.375 3.11539 24.7596 3.59616 24.7596 4.60577C24.7596 5.61539 24.375 6.09616 23.0769 6.09616H19.1827V3.11539ZM19.1827 11.1442H23.5577C24.9519 11.1442 25.3365 10.6635 25.3365 9.5577C25.3365 8.45193 24.9519 7.92308 23.5577 7.92308H20.6731C19.5673 7.92308 19.1827 8.25962 19.1827 8.98077V11.1442Z" fill="black"/>
<path fill-rule="evenodd" clip-rule="evenodd" d="M55.3846 8.30769L58.0288 12.875C58.0769 12.9231 58.0769 13.0673 57.9808 13.0673H55.7212C55.5288 13.0673 55.4808 13.0192 55.3846 12.875L52.9808 8.54808H50.8173C49.7115 8.54808 49.3269 8.88462 49.3269 9.60577V13.0673H47.1635C47.0192 13.0673 46.875 12.9231 46.875 12.7788V2.05769C46.875 1.48077 47.2115 1.24039 48.0288 1.24039H53.0769C56.0096 1.24039 57.7885 2.00962 57.7885 4.89423C57.7885 7.10577 56.6827 7.97116 55.3846 8.30769ZM49.2788 6.72116H53.4135C54.9519 6.72116 55.2885 6.14423 55.2885 4.89423C55.2885 3.69231 54.9519 3.11539 53.4135 3.11539H49.2788V6.72116Z" fill="black"/>
<path d="M76.8585 12.0096L76.8104 13.0673H68.0604V1.24039H76.4739L76.522 2.34616H69.2623V6.43269H75.5123V7.39423H69.2623V12.0096H76.8585Z" fill="#57AD56" stroke="#57AD56" stroke-width="0.25"/>
<path fill-rule="evenodd" clip-rule="evenodd" d="M84.1181 9.99039H91.0893L92.4354 13.0673H93.7816L88.3489 1.24039H86.9546L81.4739 13.0673H82.772L84.1181 9.99039ZM84.5508 8.98077L87.0989 3.25962L87.5796 2.05769H87.6277L88.1085 3.25962L90.6085 8.98077H84.5508Z" fill="#57AD56"/>
<path d="M91.0893 9.99039L91.2038 9.94028L91.171 9.86539H91.0893V9.99039ZM84.1181 9.99039V9.86539H84.0364L84.0036 9.94028L84.1181 9.99039ZM92.4354 13.0673L92.3209 13.1174L92.3537 13.1923H92.4354V13.0673ZM93.7816 13.0673V13.1923H93.9765L93.8952 13.0151L93.7816 13.0673ZM88.3489 1.24039L88.4625 1.18821L88.429 1.11539H88.3489V1.24039ZM86.9546 1.24039V1.11539H86.8748L86.8412 1.18783L86.9546 1.24039ZM81.4739 13.0673L81.3605 13.0148L81.2782 13.1923H81.4739V13.0673ZM82.772 13.0673V13.1923H82.8537L82.8865 13.1174L82.772 13.0673ZM87.0989 3.25962L87.2131 3.31051L87.2149 3.30604L87.0989 3.25962ZM84.5508 8.98077L84.4366 8.92992L84.3583 9.10577H84.5508V8.98077ZM87.5796 2.05769V1.93269H87.495L87.4636 2.01127L87.5796 2.05769ZM87.6277 2.05769L87.7438 2.01127L87.7124 1.93269H87.6277V2.05769ZM88.1085 3.25962L87.9924 3.30606L87.994 3.30967L88.1085 3.25962ZM90.6085 8.98077V9.10577H90.7995L90.723 8.93072L90.6085 8.98077ZM91.0893 9.86539H84.1181V10.1154H91.0893V9.86539ZM92.5499 13.0172L91.2038 9.94028L90.9747 10.0405L92.3209 13.1174L92.5499 13.0172ZM93.7816 12.9423H92.4354V13.1923H93.7816V12.9423ZM88.2353 1.29256L93.668 13.1195L93.8952 13.0151L88.4625 1.18821L88.2353 1.29256ZM86.9546 1.36539H88.3489V1.11539H86.9546V1.36539ZM81.5873 13.1199L87.0681 1.29294L86.8412 1.18783L81.3605 13.0148L81.5873 13.1199ZM82.772 12.9423H81.4739V13.1923H82.772V12.9423ZM84.0036 9.94028L82.6574 13.0172L82.8865 13.1174L84.2326 10.0405L84.0036 9.94028ZM86.9847 3.20876L84.4366 8.92992L84.665 9.03163L87.2131 3.31047L86.9847 3.20876ZM87.4636 2.01127L86.9828 3.21319L87.2149 3.30604L87.6957 2.10412L87.4636 2.01127ZM87.6277 1.93269H87.5796V2.18269H87.6277V1.93269ZM88.2246 3.21319L87.7438 2.01127L87.5117 2.10412L87.9924 3.30604L88.2246 3.21319ZM90.723 8.93072L88.223 3.20957L87.994 3.30967L90.4939 9.03082L90.723 8.93072ZM84.5508 9.10577H90.6085V8.85577H84.5508V9.10577Z" fill="#57AD56"/>
<path d="M102.435 2.34616V13.0673H101.234V2.34616H96.8104L96.8585 1.24039H106.907V2.34616H102.435Z" fill="#57AD56" stroke="#57AD56" stroke-width="0.25"/>
<path d="M115.464 13.3077C113.83 13.3077 112.532 12.9231 111.474 12.2981L111.666 11.2404C112.772 11.8654 114.022 12.25 115.512 12.25C117.724 12.25 118.878 11.2404 118.878 9.79808C118.878 6.67308 111.666 8.30769 111.666 4.26923C111.666 2.53846 112.964 1 115.993 1C117.387 1 118.637 1.24038 119.647 1.72115L119.455 2.73077C118.349 2.29808 117.291 2.05769 116.041 2.05769C113.685 2.05769 112.82 3.11538 112.82 4.17308C112.82 7.15385 120.032 5.47115 120.032 9.70192C119.983 11.8173 118.445 13.3077 115.464 13.3077Z" fill="#57AD56" stroke="#57AD56" stroke-width="0.25"/>
</svg>
