<svg width="78" height="40" viewBox="0 0 78 40" fill="none" xmlns="http://www.w3.org/2000/svg">
<path d="M21.4551 24V14.7578H24.6226C25.6678 14.7578 26.4634 14.9673 27.0093 15.3862C27.5552 15.8052 27.8281 16.4294 27.8281 17.2588C27.8281 17.682 27.7139 18.0628 27.4854 18.4014C27.2568 18.7399 26.9225 19.0023 26.4824 19.1885C26.9818 19.3239 27.3669 19.5799 27.6377 19.9565C27.9128 20.3289 28.0503 20.7775 28.0503 21.3022C28.0503 22.1698 27.771 22.8363 27.2124 23.3018C26.658 23.7673 25.8625 24 24.8257 24H21.4551ZM23.061 19.8296V22.7178H24.8447C25.3483 22.7178 25.7419 22.5929 26.0254 22.3433C26.3089 22.0936 26.4507 21.7466 26.4507 21.3022C26.4507 20.3416 25.9598 19.8507 24.978 19.8296H23.061ZM23.061 18.6489H24.6353C25.1346 18.6489 25.5239 18.5368 25.8032 18.3125C26.0868 18.084 26.2285 17.7624 26.2285 17.3477C26.2285 16.8906 26.0973 16.5605 25.835 16.3574C25.5768 16.1543 25.1727 16.0527 24.6226 16.0527H23.061V18.6489ZM29.2183 20.5024C29.2183 19.8296 29.3516 19.2244 29.6182 18.687C29.8848 18.1453 30.2593 17.7306 30.7417 17.4429C31.2241 17.1509 31.7785 17.0049 32.4048 17.0049C33.3315 17.0049 34.0827 17.3032 34.6582 17.8999C35.238 18.4966 35.5511 19.2879 35.5977 20.2739L35.604 20.6357C35.604 21.3128 35.4728 21.918 35.2104 22.4512C34.9523 22.9844 34.5799 23.397 34.0933 23.689C33.6108 23.981 33.0522 24.127 32.4175 24.127C31.4484 24.127 30.6719 23.8053 30.0879 23.1621C29.5081 22.5146 29.2183 21.6535 29.2183 20.5786V20.5024ZM30.7607 20.6357C30.7607 21.3424 30.9067 21.8968 31.1987 22.2988C31.4907 22.6966 31.897 22.8955 32.4175 22.8955C32.938 22.8955 33.3421 22.6924 33.6299 22.2861C33.9219 21.8799 34.0679 21.2853 34.0679 20.5024C34.0679 19.8084 33.9176 19.2583 33.6172 18.8521C33.321 18.4458 32.9168 18.2427 32.4048 18.2427C31.9012 18.2427 31.5013 18.4437 31.2051 18.8457C30.9089 19.2435 30.7607 19.8402 30.7607 20.6357ZM41.1963 17.1318H42.7324V24H41.1963V19.417L38.5049 24H36.9688V17.1318H38.5049V21.7148L41.1963 17.1318ZM41.9199 14.4976C41.9199 15.0308 41.7337 15.4624 41.3613 15.7925C40.9889 16.1226 40.4917 16.2876 39.8696 16.2876C39.2476 16.2876 38.7503 16.1226 38.3779 15.7925C38.0055 15.4624 37.8193 15.0308 37.8193 14.4976H38.9746C38.9746 14.7769 39.0529 14.9948 39.2095 15.1514C39.3703 15.3037 39.5903 15.3799 39.8696 15.3799C40.1489 15.3799 40.3669 15.3037 40.5234 15.1514C40.68 14.9948 40.7583 14.7769 40.7583 14.4976H41.9199ZM49.7783 18.3569H47.5503V24H46.0078V18.3569H43.8052V17.1318H49.7783V18.3569ZM55.0977 17.1318H56.6338V24H55.0977V19.417L52.4062 24H50.8701V17.1318H52.4062V21.7148L55.0977 17.1318Z" fill="#1D1D1D"/>
<path d="M0.5 2C0.5 1.17157 1.17157 0.5 2 0.5H76C76.8284 0.5 77.5 1.17157 77.5 2V38C77.5 38.8284 76.8284 39.5 76 39.5H2C1.17157 39.5 0.5 38.8284 0.5 38V2Z" stroke="#E0E0E0"/>
</svg>
